<svg width="94" height="34" viewBox="0 0 94 34" fill="none" xmlns="http://www.w3.org/2000/svg">
<path d="M16.1901 8.46572V26H12.988L5.3596 14.964H5.23117V26H1.52398V8.46572H4.77741L12.3459 19.4931H12.5V8.46572H16.1901ZM23.9208 26.2568C22.5909 26.2568 21.4408 25.9743 20.4705 25.4092C19.5059 24.8385 18.761 24.0451 18.2359 23.0291C17.7108 22.0074 17.4482 20.823 17.4482 19.476C17.4482 18.1176 17.7108 16.9303 18.2359 15.9144C18.761 14.8927 19.5059 14.0993 20.4705 13.5342C21.4408 12.9634 22.5909 12.6781 23.9208 12.6781C25.2508 12.6781 26.398 12.9634 27.3626 13.5342C28.333 14.0993 29.0807 14.8927 29.6058 15.9144C30.1309 16.9303 30.3935 18.1176 30.3935 19.476C30.3935 20.823 30.1309 22.0074 29.6058 23.0291C29.0807 24.0451 28.333 24.8385 27.3626 25.4092C26.398 25.9743 25.2508 26.2568 23.9208 26.2568ZM23.938 23.4315C24.543 23.4315 25.0481 23.2603 25.4534 22.9178C25.8586 22.5696 26.164 22.0959 26.3695 21.4966C26.5807 20.8973 26.6863 20.2152 26.6863 19.4503C26.6863 18.6855 26.5807 18.0034 26.3695 17.4041C26.164 16.8048 25.8586 16.331 25.4534 15.9829C25.0481 15.6347 24.543 15.4606 23.938 15.4606C23.3272 15.4606 22.8135 15.6347 22.3969 15.9829C21.9859 16.331 21.6748 16.8048 21.4637 17.4041C21.2582 18.0034 21.1554 18.6855 21.1554 19.4503C21.1554 20.2152 21.2582 20.8973 21.4637 21.4966C21.6748 22.0959 21.9859 22.5696 22.3969 22.9178C22.8135 23.2603 23.3272 23.4315 23.938 23.4315ZM38.5544 12.8493V15.589H30.6349V12.8493H38.5544ZM32.4328 9.6986H36.0801V21.9589C36.0801 22.2957 36.1315 22.5582 36.2342 22.7466C36.337 22.9292 36.4797 23.0576 36.6623 23.1318C36.8507 23.206 37.0676 23.2431 37.313 23.2431C37.4842 23.2431 37.6555 23.2289 37.8267 23.2003C37.9979 23.1661 38.1292 23.1404 38.2205 23.1233L38.7942 25.8373C38.6115 25.8944 38.3547 25.96 38.0236 26.0342C37.6926 26.1142 37.2902 26.1627 36.8164 26.1798C35.9374 26.214 35.1669 26.097 34.5048 25.8288C33.8484 25.5605 33.3375 25.1438 32.9722 24.5788C32.6069 24.0137 32.4271 23.3002 32.4328 22.4383V9.6986ZM43.4748 26.2483C42.6358 26.2483 41.8881 26.1027 41.2317 25.8116C40.5753 25.5148 40.0559 25.0782 39.6734 24.5017C39.2967 23.9195 39.1084 23.1946 39.1084 22.327C39.1084 21.5965 39.2425 20.9829 39.5108 20.4863C39.779 19.9897 40.1443 19.5902 40.6067 19.2877C41.069 18.9851 41.5941 18.7568 42.182 18.6027C42.7756 18.4486 43.3978 18.3402 44.0485 18.2774C44.8133 18.1975 45.4297 18.1233 45.8978 18.0548C46.3658 17.9806 46.7054 17.8721 46.9166 17.7294C47.1278 17.5867 47.2334 17.3756 47.2334 17.0959V17.0445C47.2334 16.5023 47.0622 16.0827 46.7197 15.7859C46.3829 15.4891 45.9035 15.3407 45.2813 15.3407C44.6249 15.3407 44.1027 15.4863 43.7145 15.7774C43.3264 16.0628 43.0696 16.4224 42.944 16.8561L39.5707 16.5822C39.7419 15.7831 40.0787 15.0924 40.581 14.5103C41.0833 13.9224 41.7311 13.4714 42.5245 13.1575C43.3236 12.8379 44.2482 12.6781 45.2985 12.6781C46.0291 12.6781 46.7283 12.7637 47.3961 12.9349C48.0696 13.1061 48.666 13.3716 49.1854 13.7311C49.7106 14.0907 50.1244 14.5531 50.4269 15.1181C50.7294 15.6775 50.8807 16.3482 50.8807 17.1301V26H47.4217V24.1764H47.319C47.1078 24.5873 46.8253 24.9498 46.4714 25.2637C46.1175 25.5719 45.6923 25.8145 45.1957 25.9914C44.6991 26.1627 44.1255 26.2483 43.4748 26.2483ZM44.5193 23.7312C45.0559 23.7312 45.5296 23.6256 45.9406 23.4144C46.3515 23.1975 46.674 22.9064 46.908 22.5411C47.1421 22.1758 47.2591 21.762 47.2591 21.2996V19.9041C47.1449 19.9783 46.988 20.0468 46.7882 20.1096C46.5941 20.1667 46.3744 20.2209 46.1289 20.2722C45.8835 20.3179 45.6381 20.3607 45.3926 20.4007C45.1472 20.4349 44.9246 20.4663 44.7248 20.4949C44.2967 20.5576 43.9229 20.6575 43.6032 20.7945C43.2836 20.9315 43.0353 21.117 42.8584 21.351C42.6814 21.5793 42.593 21.8647 42.593 22.2072C42.593 22.7038 42.7728 23.0833 43.1324 23.3459C43.4977 23.6027 43.96 23.7312 44.5193 23.7312ZM52.5048 26V12.8493H56.0408V15.1438H56.1778C56.4175 14.3276 56.8199 13.7112 57.3849 13.2945C57.95 12.8721 58.6007 12.6609 59.337 12.6609C59.5197 12.6609 59.7166 12.6723 59.9278 12.6952C60.1389 12.718 60.3245 12.7494 60.4843 12.7894V16.0257C60.313 15.9743 60.0762 15.9286 59.7737 15.8887C59.4711 15.8487 59.1943 15.8287 58.9432 15.8287C58.4066 15.8287 57.9272 15.9458 57.5048 16.1798C57.0881 16.4081 56.7571 16.7277 56.5117 17.1387C56.2719 17.5496 56.1521 18.0234 56.1521 18.5599V26H52.5048ZM61.1645 26V12.8493H64.8118V26H61.1645ZM62.9967 11.1541C62.4544 11.1541 61.9893 10.9743 61.6011 10.6147C61.2187 10.2494 61.0275 9.81276 61.0275 9.30476C61.0275 8.80248 61.2187 8.37154 61.6011 8.01195C61.9893 7.64666 62.4544 7.46401 62.9967 7.46401C63.5389 7.46401 64.0013 7.64666 64.3837 8.01195C64.7718 8.37154 64.9659 8.80248 64.9659 9.30476C64.9659 9.81276 64.7718 10.2494 64.3837 10.6147C64.0013 10.9743 63.5389 11.1541 62.9967 11.1541ZM69.5759 12.8493L71.9903 17.4469L74.4646 12.8493H78.206L74.3961 19.4246L78.3088 26H74.5845L71.9903 21.4538L69.4389 26H65.6718L69.5759 19.4246L65.8088 12.8493H69.5759ZM88.1992 14.7671L85.6821 8.46572H87.0776L88.6444 12.6267L90.2026 8.46572H91.5982L89.0896 14.7671H88.1992ZM85.1941 14.7671V8.46572H86.778V14.7671H85.1941ZM90.5023 14.7671V8.46572H92.0948V14.7671H90.5023ZM80.5879 14.7671V9.01367H82.1804V14.7671H80.5879ZM78.6701 9.77565V8.46572H84.0982V9.77565H78.6701Z" fill="#0F172A"/>
</svg>
