<svg width="157" height="46" viewBox="0 0 157 46" fill="none" xmlns="http://www.w3.org/2000/svg">
<path d="M35.099 43.7297C31.1038 44.0146 27.2279 44.4689 23.3608 45.0105C22.5907 45.1184 21.8124 45.1086 21.0666 45.4098C20.7635 45.5323 20.3587 45.5328 20.0566 45.1512C20.1731 44.686 20.6292 44.6595 20.9607 44.6041C23.7902 44.1316 26.6198 43.6518 29.461 43.2589C32.6981 42.8113 35.9441 42.4225 39.1922 42.0615C41.7007 41.7827 44.2149 41.5363 46.7326 41.3623C54.1497 40.8497 61.5732 40.4793 69.0092 40.3433C76.6965 40.2028 84.3806 40.1166 92.0672 40.4101C94.9831 40.5214 97.9027 40.5405 100.821 40.6505C106.936 40.881 113.032 41.3265 119.124 41.9016C122.029 42.1758 124.919 42.547 127.815 42.8823C130.207 43.1593 132.584 43.5705 134.964 43.9454C135.297 43.9979 135.677 44.0641 135.871 44.4445C135.697 44.901 135.294 44.828 134.975 44.7684C131.969 44.2065 128.919 43.996 125.887 43.6614C123.025 43.3456 120.151 43.1216 117.278 42.9236C113.163 42.6399 109.045 42.3871 104.926 42.1768C101.513 42.0025 98.0962 41.8887 94.6801 41.7833C85.8873 41.5119 77.0899 41.4809 68.2995 41.7258C61.2275 41.9229 54.1508 42.1443 47.0925 42.6996C43.4076 42.9895 39.7224 43.275 36.0379 43.5691C35.7558 43.5916 35.4779 43.6661 35.099 43.7297Z" fill="#1767BE"/>
<path d="M48.2002 33.6679C48.1995 34.3425 48.2275 34.914 48.1872 35.4806C48.1555 35.9253 48.2028 36.4687 47.6275 36.6357C47.0785 36.795 46.5634 36.6808 46.1723 36.2266C45.5492 35.5029 44.9344 34.772 44.2392 33.9537C43.9107 34.5715 44.0285 35.1722 44.0214 35.7404C44.0127 36.431 43.6747 36.6879 43.0207 36.6775C42.37 36.6671 42.155 36.3147 42.1592 35.7213C42.1684 34.4401 42.15 33.1585 42.1711 31.8775C42.1784 31.435 42.0781 30.8768 42.6783 30.7176C43.2557 30.5645 43.8251 30.6462 44.2281 31.1558C44.8191 31.903 45.3899 32.6661 46.0766 33.5626C46.3528 32.7928 46.2284 32.1616 46.2676 31.5568C46.3082 30.9303 46.5246 30.5157 47.2145 30.5369C47.9156 30.5585 48.2304 30.9358 48.2039 31.6408C48.1798 32.2806 48.1991 32.922 48.2002 33.6679Z" fill="#254558"/>
<path d="M59.7795 33.0824C60.5146 32.7669 60.0631 32.1525 60.1067 31.6716C60.1665 31.0114 60.1858 30.4568 61.0506 30.4498C61.9445 30.4425 61.9675 31.0422 61.962 31.6829C61.9517 32.8899 61.9567 34.0973 61.9288 35.304C61.9187 35.7387 62.0795 36.2914 61.4686 36.4766C60.8361 36.6684 60.2781 36.5283 59.8575 35.9745C59.3077 35.2505 58.749 34.5332 58.1131 33.7078C57.7357 34.4352 57.8902 35.0451 57.858 35.624C57.8285 36.1533 57.6701 36.5287 57.0757 36.5562C56.5142 36.5821 56.1218 36.4244 56.0456 35.7654C55.8663 34.2148 55.9722 32.6634 55.9857 31.1125C55.9889 30.744 56.2781 30.5517 56.6147 30.488C57.1335 30.3897 57.6164 30.4902 57.9719 30.9073C58.5697 31.6086 59.1477 32.3268 59.7795 33.0824Z" fill="#254558"/>
<path d="M69.2255 30.4611C69.605 30.6115 69.9117 30.7186 70.1807 30.8863C70.483 31.0746 71.0575 31.178 70.784 31.6974C70.5372 32.166 70.1037 32.6064 69.4818 32.2977C68.9125 32.015 68.3448 31.8842 67.7319 32.0163C67.0723 32.1585 66.6871 32.5579 66.6062 33.258C66.518 34.0219 66.7609 34.6109 67.47 34.9183C68.0535 35.1712 68.6751 35.344 69.1707 34.7194C69.1155 34.6067 69.1016 34.5137 69.0534 34.4898C68.6232 34.2762 67.8541 34.4495 67.941 33.6379C68.0315 32.7927 68.7511 33.0263 69.2829 32.9757C69.4948 32.9556 69.7106 32.9529 69.923 32.9669C70.402 32.9986 71.0328 32.8281 71.2048 33.4509C71.4016 34.1634 71.6059 35.0651 70.9946 35.5815C69.1551 37.1354 66.3551 37.1018 64.9402 34.8983C63.5835 32.7855 65.4262 30.6862 67.7501 30.422C68.2054 30.3702 68.6738 30.434 69.2255 30.4611Z" fill="#254558"/>
<path d="M33.2004 35.1789C32.5593 34.1053 32.4849 33.0711 33.187 32.1096C34.0582 30.9168 35.3419 30.5085 36.757 30.5759C37.6566 30.6188 38.4579 31.0171 39.2143 31.6306C38.7279 32.4398 38.2415 32.7625 37.3024 32.2972C35.9835 31.6438 34.8031 32.3376 34.7821 33.6517C34.7714 34.3251 35.0549 34.83 35.6568 35.1123C36.2706 35.4002 36.8681 35.3917 37.4133 34.8479C37.2993 34.7447 37.2338 34.6351 37.1488 34.617C36.6369 34.5078 35.9794 34.5396 36.1057 33.7363C36.2202 33.0084 36.8534 33.2521 37.3123 33.196C37.4526 33.1788 37.6021 33.1653 37.738 33.1942C38.3544 33.3254 39.2563 32.7946 39.4516 33.9186C39.703 35.3649 39.4365 35.9184 38.2667 36.3849C36.2996 37.1693 34.6495 36.7951 33.2004 35.1789Z" fill="#254558"/>
<path d="M98.5412 34.2815C98.7221 34.9765 99.4333 35.2992 99.4825 36.0626C98.6706 36.4811 97.9491 36.4658 97.3481 35.6926C97.1742 35.4689 97.033 35.2191 96.8831 34.9774C96.6979 34.6788 96.4463 34.4936 96.0858 34.5755C95.7114 34.6606 95.7346 34.9762 95.7542 35.2635C95.8014 35.954 95.5714 36.3294 94.7935 36.316C93.9779 36.3019 93.8833 35.8273 93.8901 35.1885C93.9038 33.9067 93.9118 32.6241 93.8852 31.3427C93.8707 30.6407 94.203 30.3853 94.858 30.3977C95.6057 30.4118 96.3545 30.4238 97.1015 30.3972C98.0936 30.3618 98.8607 30.7661 99.2884 31.631C99.7077 32.4789 99.3536 33.2125 98.7053 33.832C98.6122 33.921 98.5867 34.0808 98.5412 34.2815ZM96.9122 32.9472C97.2422 32.8584 97.5281 32.7056 97.4857 32.3095C97.4565 32.0364 97.2348 31.8786 96.9757 31.8407C96.5987 31.7855 96.1778 31.6586 95.8799 31.9887C95.7651 32.1159 95.7414 32.3988 95.787 32.5833C95.9204 33.1231 96.3861 32.9406 96.9122 32.9472Z" fill="#254558"/>
<path d="M87.768 30.4053C88.6189 30.4072 89.3661 30.4065 90.1132 30.4123C90.5832 30.416 90.9788 30.5266 90.9643 31.1144C90.95 31.6941 90.5498 31.7653 90.0847 31.8034C89.4175 31.8581 88.6966 31.6592 87.9839 32.1039C88.4645 32.8108 89.0839 32.5336 89.5938 32.5881C90.123 32.6446 90.6405 32.6947 90.6245 33.382C90.6081 34.0884 90.0145 33.899 89.5907 33.9952C89.0669 34.1142 88.1088 33.6335 88.1314 34.5096C88.1499 35.2249 89.061 34.8052 89.5734 34.8952C89.8872 34.9503 90.2117 34.9515 90.5215 35.0213C90.8903 35.1045 91.0171 35.3792 91.0029 35.7451C90.9877 36.1357 90.7751 36.3582 90.4109 36.3652C89.2052 36.3882 87.9987 36.3948 86.7929 36.3795C86.2224 36.3723 85.9924 36.0264 85.9986 35.467C86.0111 34.3288 85.9938 33.1903 85.9991 32.052C86.0066 30.4197 86.0104 30.4197 87.768 30.4053Z" fill="#254558"/>
<path d="M126.005 34.0641C125.847 34.6995 126.261 34.6669 126.615 34.6763C127.183 34.6915 127.753 34.6748 128.32 34.6943C128.782 34.7101 129.046 34.9558 129.039 35.435C129.033 35.8923 128.731 36.0527 128.335 36.0584C127.163 36.0754 125.99 36.0739 124.818 36.0827C124.343 36.0863 124.08 35.8618 124.068 35.383C124.034 33.9277 123.998 32.4724 123.982 31.0169C123.975 30.4607 124.263 30.1772 124.844 30.1818C125.945 30.1904 127.047 30.1754 128.148 30.1709C128.583 30.1691 128.946 30.302 128.982 30.795C129.021 31.336 128.673 31.5554 128.185 31.5825C127.654 31.6122 127.121 31.6267 126.588 31.6296C126.294 31.6313 126.013 31.6189 125.925 32.0578C126.362 32.5746 126.964 32.2928 127.486 32.3302C128.004 32.3672 128.549 32.3572 128.561 33.0565C128.574 33.7542 128 33.7841 127.505 33.8342C127.018 33.8835 126.507 33.7077 126.005 34.0641Z" fill="#254558"/>
<path d="M136.432 30.6868C136.611 31.6791 136.016 32.0994 135.085 31.7035C134.572 31.4856 134.081 31.1179 133.595 31.7479C133.818 32.4091 134.399 32.3006 134.846 32.4135C136.352 32.7934 137.072 33.455 136.957 34.3933C136.836 35.3904 135.919 36.0177 134.458 36.1024C133.745 36.1437 133.02 36.1835 132.378 35.8129C131.987 35.5872 131.251 35.4817 131.516 34.8268C131.776 34.1863 132.36 34.0529 133.033 34.4108C133.594 34.7096 134.204 34.927 134.845 34.3475C134.392 33.76 133.713 33.7442 133.146 33.5357C132.315 33.2297 131.481 32.9209 131.534 31.8414C131.587 30.7629 132.414 30.374 133.306 30.1273C134.399 29.8252 135.414 30.0803 136.432 30.6868Z" fill="#254558"/>
<path d="M82.9205 35.6805C81.5291 36.7581 80.1121 36.7577 78.6668 36.0257C78.308 35.844 77.807 35.5897 78.1348 35.0578C78.4354 34.57 78.9004 34.3056 79.4923 34.6767C80.1066 35.0617 80.7225 35.4037 81.3928 34.7769C81.3142 34.2138 80.8821 34.233 80.5177 34.1303C79.9392 33.9671 79.3336 33.8693 78.8281 33.5071C77.9235 32.8588 77.8352 31.7802 78.625 31.041C79.716 30.02 82.1166 30.1824 83.172 31.3828C82.7898 32.1083 82.2849 32.4058 81.4647 31.9786C81.0568 31.7662 80.5985 31.6199 80.2226 32.0629C80.1911 32.4963 80.5058 32.5068 80.777 32.5815C81.2558 32.7134 81.7431 32.8271 82.2051 33.0048C83.2235 33.3967 84.0247 34.6391 82.9205 35.6805Z" fill="#254558"/>
<path d="M23.0756 32.963C23.3579 33.0338 23.5637 33.0887 23.7675 33.1504C24.6991 33.4328 25.3855 33.9455 25.3077 35.0268C25.2415 35.9486 24.3914 36.6597 23.2825 36.7205C22.3339 36.7725 21.3493 36.9166 20.5228 36.2364C20.2161 35.9839 19.8615 35.7154 20.1846 35.269C20.4677 34.8778 20.7996 34.5912 21.348 34.9363C22.0214 35.3601 22.7311 35.596 23.5294 34.9509C22.8954 34.3705 22.1524 34.3686 21.5032 34.1588C20.68 33.8928 20.103 33.4998 20.124 32.5317C20.145 31.5605 20.6879 31.0076 21.5557 30.7853C22.4956 30.5445 23.4569 30.4786 24.3589 30.9733C24.7148 31.1685 25.2678 31.3147 24.945 31.8826C24.6803 32.3483 24.2922 32.7847 23.6487 32.3768C23.1512 32.0615 22.6621 31.8047 22.1516 32.3599C22.2923 32.8144 22.6793 32.8322 23.0756 32.963Z" fill="#254558"/>
<path d="M116.507 30.7287C117.883 29.9218 119.235 30.0175 120.585 30.5229C121.001 30.6784 121.577 30.9001 121.363 31.4711C121.178 31.9646 120.62 32.1105 120.09 32.0335C119.851 31.9988 119.63 31.8506 119.395 31.7705C118.689 31.5297 117.968 31.3893 117.466 32.1156C117.01 32.7764 116.886 33.5085 117.435 34.1968C118.002 34.9081 118.747 34.8397 119.474 34.5299C120.006 34.3031 120.479 33.9918 121.053 34.4372C121.426 34.7262 121.639 35.0298 121.21 35.3801C119.583 36.7069 116.418 36.6743 115.338 34.3191C114.731 32.9964 115.114 31.8777 116.507 30.7287Z" fill="#254558"/>
<path d="M101.748 30.4454C102.725 30.0106 103.286 30.3476 103.667 31.2219C104.002 31.9886 104.422 32.7181 104.863 33.5765C105.473 32.7359 105.698 31.9177 105.963 31.1217C106.134 30.6074 106.383 30.2444 106.991 30.2118C107.985 30.1586 108.253 30.5047 107.808 31.3851C107.148 32.6897 106.624 34.0483 106.121 35.4169C105.934 35.9249 105.629 36.2669 105.036 36.2787C104.517 36.289 104.026 36.2656 103.737 35.7453C102.856 34.1581 102.162 32.488 101.57 30.7746C101.545 30.7011 101.643 30.5851 101.748 30.4454Z" fill="#254558"/>
<path d="M141.795 32.3128C145.183 31.861 152.34 32.0703 152.91 32.6179C152.74 33.0445 152.356 33.1638 151.969 33.1679C148.752 33.2019 145.535 33.2288 142.318 33.2202C141.83 33.2189 141.113 33.1778 141.795 32.3128Z" fill="#254558"/>
<path d="M28.0772 34.3012C28.0775 33.3471 28.0818 32.4974 28.0658 31.6482C28.0517 30.9025 28.4753 30.6612 29.1402 30.6502C29.8074 30.6391 30.1432 30.9997 30.1436 31.6208C30.1443 33.07 30.1093 34.5195 30.069 35.9683C30.0518 36.5852 29.605 36.6855 29.1024 36.6947C28.5959 36.704 28.1554 36.5996 28.1064 35.9978C28.0634 35.4697 28.0813 34.9366 28.0772 34.3012Z" fill="#254558"/>
<path d="M112.003 30.25C112.319 30.3939 112.499 30.5575 112.499 30.8428C112.501 32.3636 112.506 33.8844 112.496 35.4051C112.491 36.1629 111.934 36.1953 111.376 36.2225C110.717 36.2545 110.522 35.9308 110.541 35.3038C110.579 34.0608 110.559 32.8159 110.554 31.5718C110.549 30.2212 110.557 30.2101 112.003 30.25Z" fill="#254558"/>
<path d="M52.946 34.5067C52.9355 35.0368 52.9539 35.4658 52.9117 35.8887C52.8537 36.4702 52.4214 36.6366 51.9216 36.6407C51.4005 36.6449 51.1485 36.3415 51.1469 35.8296C51.1424 34.3363 51.1373 32.843 51.1408 31.3498C51.1421 30.7939 51.4255 30.486 51.993 30.4834C52.5435 30.4809 52.8891 30.7692 52.9106 31.3112C52.9514 32.3407 52.9384 33.3722 52.946 34.5067Z" fill="#254558"/>
<path d="M5.26517 32.97C8.34896 32.9621 11.3309 32.9526 14.3129 32.9489C14.7107 32.9485 15.3331 32.722 15.3564 33.3232C15.3844 34.0478 14.6815 33.9046 14.2189 33.9071C11.1948 33.9233 8.17044 33.9241 5.14624 33.912C4.71527 33.9102 4.02007 34.0775 4.00059 33.4751C3.97589 32.7114 4.73743 33.0812 5.26517 32.97Z" fill="#254558"/>
<path d="M0.12265 18.8969C0.0978528 17.1568 -0.00563909 15.5098 0.0605674 13.8697C0.216256 10.0129 -0.0310782 6.1607 0.00332754 2.30577C0.0124987 1.27827 0.314269 0.832657 1.4276 0.848028C4.5791 0.891533 4.55535 0.874925 6.7206 3.10534C10.2156 6.70548 13.7456 10.2715 17.2639 13.849C17.3906 13.9779 17.5494 14.0753 17.7302 14.2163C18.1374 13.8156 17.9827 13.3467 17.9841 12.9356C17.997 9.33711 18.0187 5.73825 17.972 2.14034C17.9593 1.15422 18.2937 0.775553 19.2707 0.836022C20.0539 0.884486 20.8506 0.883854 21.6292 0.796886C22.6839 0.679065 23.0406 1.12183 23.0353 2.13082C23.0135 6.21597 23.0324 10.3013 23.0322 14.3866C23.0322 16.2983 22.9895 18.2107 23.0313 20.1214C23.053 21.1127 22.6111 21.3463 21.6897 21.455C19.4321 21.7213 17.7836 21.0409 16.209 19.2855C12.8862 15.5809 9.29712 12.1151 5.81708 8.55158C5.63829 8.36849 5.47352 8.15947 5.10283 8.15563C4.83258 9.79087 4.89672 11.4278 4.86008 13.0507C4.80375 15.5454 4.84201 18.0427 4.86852 20.5386C4.87558 21.2037 4.63504 21.4997 3.95431 21.497C3.20806 21.494 2.46134 21.5936 1.71516 21.5894C0.211539 21.5808 -0.0210038 21.3145 0.0395036 19.7753C0.049779 19.5139 0.0930484 19.2538 0.12265 18.8969Z" fill="#25485B"/>
<path d="M34.7717 1.38884C38.3083 0.065731 41.877 -0.0107836 45.3423 0.979935C49.9444 2.29561 53.7118 5.95204 53.7411 11.2319C53.7484 12.5463 53.3783 13.8238 52.7564 15.0036C50.5738 19.1437 46.9865 21.136 42.4734 21.6485C38.6021 22.088 34.9398 21.501 31.6539 19.2455C25.5763 15.0736 25.7916 6.56794 32.0798 2.71872C32.9105 2.21027 33.747 1.70741 34.7717 1.38884ZM33.2606 14.3413C33.7896 15.273 34.487 16.0514 35.4353 16.5602C38.7104 18.3178 42.0179 18.4178 45.3016 16.6133C48.532 14.838 49.5829 10.6043 47.5105 7.59294C45.5738 4.7788 42.6901 4.09553 39.4996 4.36496C37.6014 4.52526 35.8187 5.16514 34.3892 6.45086C32.2584 8.36733 31.8512 11.3253 33.2606 14.3413Z" fill="#25485B"/>
<path d="M118.16 16.0057C119.541 17.43 120.691 18.9286 121.731 20.5488C120.953 21.2038 120.13 20.8501 119.384 20.9633C117.423 21.2605 115.967 20.6708 114.849 18.9018C113.999 17.5583 112.688 16.5257 111.778 15.1889C111.521 14.8117 111.15 14.6852 110.708 14.6942C109.548 14.7177 108.386 14.7692 107.227 14.7367C106.525 14.7171 106.298 14.9996 106.307 15.6591C106.326 17.0451 106.268 18.4328 106.314 19.8173C106.344 20.7166 105.959 21.0267 105.111 20.9877C104.325 20.9515 103.537 20.9879 102.75 20.9812C101.361 20.9694 101.265 20.891 101.263 19.5207C101.256 14.7621 101.266 10.0035 101.267 5.24495C101.267 4.00847 101.274 2.77167 101.249 1.53561C101.236 0.84371 101.534 0.433801 102.223 0.444955C106.769 0.518489 111.335 -0.185856 115.859 0.842006C119.008 1.55727 120.853 3.62084 121.257 6.91491C121.581 9.55768 120.203 12.5389 117.271 13.6232C117.036 13.7101 116.823 13.8567 116.569 13.9922C116.885 14.8526 117.59 15.3274 118.16 16.0057ZM106.31 9.94335C106.349 10.375 106.239 10.9583 106.892 10.9635C109.312 10.9827 111.755 11.2787 114.138 10.6451C115.552 10.2692 116.39 8.93111 116.337 7.37366C116.285 5.87375 115.45 4.9046 113.996 4.48958C111.667 3.8249 109.321 4.29197 106.982 4.29977C106.342 4.30192 106.316 4.77926 106.315 5.2482C106.309 6.74318 106.308 8.23818 106.31 9.94335Z" fill="#25485B"/>
<path d="M83.3796 0.507777C84.5511 0.493504 85.6347 0.483971 86.7184 0.481938C87.3731 0.480715 87.8437 0.741689 88.1546 1.35924C90.1715 5.36583 92.2119 9.36063 94.2375 13.3628C95.3016 15.4653 96.2258 17.6364 97.3895 19.6912C97.964 20.7056 97.7648 20.9805 96.5702 20.994C95.8206 21.0024 95.047 20.8756 94.3263 21.0198C93.0031 21.2846 92.2804 20.6156 91.9549 19.5377C91.2963 17.3568 89.965 16.6498 87.7093 16.8887C85.4847 17.1243 83.216 16.9716 80.9675 16.9375C80.1856 16.9256 79.6976 17.1914 79.406 17.9199C79.1564 18.5433 78.7643 19.1149 78.5576 19.7492C78.1773 20.9158 77.4025 21.2927 76.2391 21.193C75.4956 21.1292 74.7408 21.2107 73.9917 21.1966C72.9362 21.1767 72.7498 20.913 73.1971 19.9749C74.6793 16.8662 76.1783 13.7653 77.688 10.6699C79.1811 7.60864 80.6987 4.55932 82.1962 1.50023C82.4336 1.01512 82.6567 0.544386 83.3796 0.507777ZM87.4847 10.3229C86.7392 8.83519 85.9937 7.34742 85.1452 5.65411C83.9424 8.23884 82.8424 10.6027 81.6548 13.1549C84.1441 13.2208 86.3245 13.2847 88.5267 12.948C88.4773 11.9264 87.9033 11.2464 87.4847 10.3229Z" fill="#25485B"/>
<path d="M150.364 8.31567C148.819 10.2033 148.828 10.1959 150.33 11.9736C152.385 14.4051 154.432 16.8438 156.463 19.295C156.71 19.5928 157.088 19.8657 156.982 20.4689C155.345 20.7513 153.675 20.6072 152.01 20.5228C151.619 20.5029 151.383 20.1579 151.141 19.8615C149.599 17.9771 148.047 16.1011 146.495 14.2246C146.309 13.9994 146.184 13.7012 145.72 13.6139C144.425 14.7562 143.151 16.1358 142.331 17.6381C140.783 20.4761 138.44 21.0387 135.607 20.8995C135.163 20.8776 134.701 20.9145 134.362 20.4997C134.301 19.9115 134.841 19.7036 135.116 19.3335C137.24 16.472 139.694 13.8894 142.045 11.2218C142.706 10.472 142.664 9.97707 141.999 9.23393C139.628 6.58411 137.334 3.86524 135.011 1.17171C134.841 0.974224 134.652 0.780836 134.755 0.399857C135.553 -0.0399842 136.478 0.347217 137.331 0.181743C139.54 -0.246436 140.97 0.70847 142.192 2.49325C143.26 4.05272 144.625 5.40822 145.903 6.90551C147.138 5.76812 148.005 4.44971 148.957 3.22317C152.143 -0.882536 150.853 0.306021 155.739 0.0165982C156.138 -0.0070706 156.63 -0.0710431 156.817 0.406204C156.983 0.830248 156.563 1.08786 156.337 1.35335C154.377 3.66513 152.394 5.95832 150.364 8.31567Z" fill="#25485B"/>
<path d="M67.2412 11.8855C67.2004 14.6337 67.1368 17.2862 67.1824 19.9367C67.1987 20.8845 66.8836 21.2442 65.9689 21.2104C65.1457 21.1799 64.3184 21.1725 63.4965 21.2187C62.6343 21.267 62.2868 20.9359 62.292 20.0524C62.3136 16.3451 62.2901 12.6377 62.2845 8.93027C62.2824 7.51804 62.2842 6.10579 62.2842 4.53631C60.2691 4.53631 58.4451 4.53367 56.6211 4.53704C54.7178 4.54054 54.7137 4.53914 54.7021 2.70009C54.689 0.643318 54.689 0.636779 56.7426 0.631394C62.3262 0.616778 67.91 0.630831 73.4932 0.577353C74.5507 0.567243 74.882 0.930487 74.8156 1.95033C74.6651 4.26394 75.4157 4.42735 72.2763 4.39265C70.8927 4.37735 69.5082 4.4926 68.1235 4.52818C67.4427 4.54568 67.2138 4.90815 67.2201 5.53572C67.2411 7.62008 67.2488 9.70455 67.2412 11.8855Z" fill="#25485B"/>
<path d="M130.62 13.7273C130.621 15.7507 130.586 17.6623 130.634 19.5718C130.659 20.5502 130.256 20.9453 129.311 20.9159C128.675 20.8962 128.038 20.9353 127.401 20.9374C125.829 20.9425 125.627 20.7551 125.623 19.226C125.604 13.3496 125.608 7.47298 125.564 1.59675C125.556 0.584491 125.907 0.135913 126.931 0.187646C127.678 0.225409 128.431 0.224049 129.177 0.174898C130.217 0.106433 130.648 0.474774 130.634 1.58823C130.583 5.59649 130.617 9.60585 130.62 13.7273Z" fill="#25485B"/>
</svg>
